<svg xmlns="http://www.w3.org/2000/svg" width="1024" height="1024" viewBox="0 0 1024 1024">
  <defs>
    <linearGradient id="surface" x1="0" y1="0" x2="0" y2="1">
      <stop offset="0" stop-color="#191B1F"/>
      <stop offset="1" stop-color="#08090B"/>
    </linearGradient>
    <filter id="soft" x="-30%" y="-30%" width="160%" height="160%">
      <feGaussianBlur stdDeviation="18"/>
    </filter>
  </defs>
  <rect x="32" y="32" width="960" height="960" rx="224" fill="url(#surface)"/>
  <rect x="55" y="55" width="914" height="914" rx="204" fill="none" stroke="#FFFFFF" stroke-opacity=".10" stroke-width="4"/>
  <path d="M212 512c0-70 57-127 127-127h346c70 0 127 57 127 127s-57 127-127 127H339c-70 0-127-57-127-127Z" fill="#020304" stroke="#FFFFFF" stroke-opacity=".12" stroke-width="4"/>
  <path d="M282 512h140l46-76 83 154 61-112 34 34h96" fill="none" stroke="#7DE7FF" stroke-width="34" stroke-linecap="round" stroke-linejoin="round"/>
  <path d="M282 512h140l46-76 83 154 61-112 34 34h96" fill="none" stroke="#7DE7FF" stroke-opacity=".34" stroke-width="70" stroke-linecap="round" stroke-linejoin="round" filter="url(#soft)"/>
  <circle cx="282" cy="512" r="17" fill="#EAFBFF"/>
  <circle cx="742" cy="512" r="17" fill="#EAFBFF"/>
</svg>
